# xmcd
#
# Track frame offsets:
#	150
#	16183
#	31166
#	48866
#	63531
#	78498
#	91804
#	106813
#	124745
#	139123
#	152691
#	172449
#	189645
#	202672
#	217865
#	232308
#	246667
#	259959
#	276462
#	294193
#	310870
#	324518
#
# Disc length: 4504 seconds
#
# Revision: 1
# Processed by: cddbd v1.5.2PL0 Copyright (c) Steve Scherf et al.
# Submitted via: audiograbber 1.82.02
#
DISCID=3e119616
DTITLE=Various Artist - Country Radio - February 2015
DYEAR=2015
DGENRE=Country
TTITLE0=Blake Shelton (Ft. Ashley Monroe) - Lonely Tonight
TTITLE1=Colt Ford - Crank It Up
TTITLE2=Shane Gamble - Beautiful Work
TTITLE3=Cledus T. Judd (Ft. Colt Ford) - Luke Bryan
TTITLE4=Lucy Angel - Crazy Too
TTITLE5=Kelleigh Bannen - Smoke When I Drink
TTITLE6=Rachele Lynae - Whole Lotta Nothin'
TTITLE7=Mickey Guyton - Better Than You Left Me
TTITLE8=Little Big Town - Girl Crush
TTITLE9=Lonestar - Pretty Good Day
TTITLE10=Aaron Watson - That Look
TTITLE11=Ariana Hodes - You Don't Have To Say You Love Me
TTITLE12=Glen Campbell - I'm Not Gonna Miss You
TTITLE13=Daniel Lee - Head Over Heels
TTITLE14=Mo Pitney - Country
TTITLE15=Miranda Lambert - Little Red Wagon (Clean)
TTITLE16=Frankie Ballard - Young and Crazy
TTITLE17=Reba McEntire - Going Out Like That
TTITLE18=Davisson Brothers Band - Jesse James
TTITLE19=Big and Rich - Run Away With You
TTITLE20=Allie Louise - It's Gettin' Old
TTITLE21=Camille Sanders - Fiddlin' Around
EXTD=
EXTT0=
EXTT1=
EXTT2=
EXTT3=
EXTT4=
EXTT5=
EXTT6=
EXTT7=
EXTT8=
EXTT9=
EXTT10=
EXTT11=
EXTT12=
EXTT13=
EXTT14=
EXTT15=
EXTT16=
EXTT17=
EXTT18=
EXTT19=
EXTT20=
EXTT21=
PLAYORDER=
